<svg width="40" height="40" viewBox="0 0 40 40" fill="none" xmlns="http://www.w3.org/2000/svg">
<g clip-path="url(#clip0_2124_4788)">
<path d="M18.8327 34.0694C15.8157 33.8213 13.0649 32.6204 10.8818 30.7691L6.68335 34.9675C10.0658 37.9847 14.3076 39.7417 18.8327 40V34.0694Z" fill="#185A61"/>
<path d="M5.03249 33.3167L9.23091 29.1183C7.37956 26.9352 6.17871 24.1843 5.93062 21.1673H0C0.258329 25.6925 2.01529 29.9343 5.03249 33.3167Z" fill="#185A61"/>
<path d="M18.8328 5.93054V0C14.3076 0.258329 10.0658 2.01529 6.68335 5.03249L10.8818 9.23091C13.0649 7.37956 15.8157 6.17871 18.8328 5.93054Z" fill="#185A61"/>
<path d="M0 18.8327H5.93054C6.17863 15.8157 7.37956 13.0649 9.23083 10.8817L5.03241 6.68329C2.01529 10.0657 0.258329 14.3075 0 18.8327H0Z" fill="#185A61"/>
<path d="M25.0316 18.3955C25.0316 17.2714 24.1155 16.3568 22.9895 16.3568C22.1521 16.3568 21.3863 16.8805 21.0841 17.66C20.9099 18.1093 20.4776 18.4054 19.9958 18.4054C19.5139 18.4054 19.0815 18.1093 18.9074 17.66C18.6052 16.8805 17.8394 16.3568 17.002 16.3568H16.9964C16.342 16.3568 15.9017 16.6594 15.6467 16.9137C15.216 17.3433 14.9689 17.9717 14.9689 18.6377C14.9689 18.6477 14.9688 18.6577 14.9685 18.6677C14.9913 21.5087 18.2344 24.0089 20.0047 25.0537C21.3426 24.2749 25.0316 21.8149 25.0316 18.3955Z" fill="#185A61"/>
<path d="M31.7833 20C31.7833 13.5027 26.4973 8.21661 19.9999 8.21661C13.5025 8.21661 8.21655 13.5027 8.21655 20C8.21655 26.4974 13.5025 31.7834 19.9999 31.7834C26.4973 31.7834 31.7833 26.4974 31.7833 20ZM19.4658 27.4227C19.1868 27.28 12.6337 23.8653 12.6337 18.6377C12.6337 18.6245 12.6339 18.6114 12.6343 18.5983C12.6444 17.3308 13.1401 16.1163 13.9979 15.2608C14.799 14.4618 15.8624 14.0222 16.9934 14.0222H17.005C18.1311 14.0222 19.1979 14.4664 19.9957 15.2116C20.7938 14.4664 21.8612 14.0222 22.9893 14.0222C25.4027 14.0222 27.3661 15.9841 27.3661 18.3955C27.3661 20.7545 26.1666 23.0741 23.8974 25.1037C23.0332 25.8766 22.1755 26.4609 21.6082 26.8149C20.5373 27.4833 20.2894 27.5204 20.1702 27.5382C20.113 27.5467 20.0552 27.551 19.9977 27.551C19.8136 27.5509 19.6311 27.5074 19.4658 27.4227Z" fill="#185A61"/>
<path d="M34.9675 6.68329L30.769 10.8817C32.6204 13.0649 33.8212 15.8157 34.0693 18.8327H39.9999C39.7416 14.3075 37.9846 10.0657 34.9675 6.68329Z" fill="#185A61"/>
<path d="M29.1182 30.7691C26.9351 32.6205 24.1843 33.8213 21.1672 34.0694V40C25.6924 39.7417 29.9342 37.9847 33.3167 34.9675L29.1182 30.7691Z" fill="#185A61"/>
<path d="M39.9999 21.1673H34.0693C33.8212 24.1843 32.6203 26.9352 30.769 29.1183L34.9675 33.3167C37.9845 29.9343 39.7415 25.6925 39.9999 21.1673Z" fill="#185A61"/>
<path d="M33.3167 5.03249C29.9343 2.01529 25.6924 0.258329 21.1672 0V5.93054C24.1843 6.17863 26.9351 7.37956 29.1182 9.23083L33.3167 5.03249Z" fill="#185A61"/>
</g>
<defs>
<clipPath id="clip0_2124_4788">
<rect width="40" height="40" fill="white"/>
</clipPath>
</defs>
</svg>
