<svg width="40" height="40" viewBox="0 0 40 40" fill="none" xmlns="http://www.w3.org/2000/svg">
<g clip-path="url(#clip0_2124_4987)">
<path d="M24.2874 28.7431C24.3131 24.2757 28.0049 20.6944 32.4723 20.6944H37.975V18.2542C37.975 17.6833 37.5121 17.2205 36.9413 17.2205H0.00390625V38.4085C0.00390625 39.2875 0.716495 40.0001 1.59553 40.0001H36.3836C37.2626 40.0001 37.9752 39.2875 37.9752 38.4085V36.8864H32.3834C27.9034 36.8863 24.2617 33.2289 24.2874 28.7431Z" fill="white"/>
<path d="M38.9619 23.1061H32.4316C29.3021 23.1061 26.7054 25.605 26.6751 28.7344C26.6445 31.8944 29.2061 34.4748 32.3591 34.4748H38.9619C39.5328 34.4748 39.9956 34.0119 39.9956 33.441V24.1399C39.9958 23.5689 39.5329 23.1061 38.9619 23.1061ZM31.0278 29.9648C30.3618 29.9648 29.8219 29.4249 29.8219 28.759C29.8219 28.093 30.3618 27.5531 31.0278 27.5531C31.6937 27.5531 32.2336 28.093 32.2336 28.759C32.2335 29.4249 31.6937 29.9648 31.0278 29.9648Z" fill="white"/>
<path d="M8.72891 14.8088V4.2378C8.72891 3.59075 9.25349 3.06617 9.90054 3.06617H13.7237V0H7.54892C6.62825 0 5.88184 0.746409 5.88184 1.66716V14.8088H8.72906C8.72899 14.8079 8.72891 14.8096 8.72891 14.8088Z" fill="white"/>
<path d="M18.8413 14.8087V9.50546H14.8952C14.2482 9.50546 13.7236 8.98088 13.7236 8.33382V5.40942H11.0719V14.8087C11.0719 14.8096 11.0718 14.8079 11.0718 14.8087H18.8414C18.8414 14.8079 18.8413 14.8096 18.8413 14.8087Z" fill="white"/>
<path d="M16.0669 7.16219H22.2077L16.0669 1.49109V7.16219Z" fill="white"/>
<path d="M24.0237 0H17.9062L24.0237 5.64962V0Z" fill="white"/>
<path d="M26.3667 0L26.3747 14.8088H29.3032V0H26.3667Z" fill="white"/>
<path d="M24.0318 9.50546H21.1847V14.8088C21.1847 14.8096 21.1846 14.8079 21.1846 14.8088H24.0318V9.50546Z" fill="white"/>
<path d="M3.53834 11.4324H2.84254C1.27513 11.4313 0.00390625 12.7016 0.00390625 14.269V14.8088H3.53834V11.4324Z" fill="white"/>
<path d="M33.0756 0H31.6465V14.8088H34.7427V1.66716C34.7426 0.746409 33.9962 0 33.0756 0V0Z" fill="white"/>
</g>
<defs>
<clipPath id="clip0_2124_4987">
<rect width="40" height="40" fill="white"/>
</clipPath>
</defs>
</svg>
