<svg width="40" height="40" viewBox="0 0 40 40" fill="none" xmlns="http://www.w3.org/2000/svg">
<g clip-path="url(#clip0_2124_4958)">
<path d="M13.8813 17.1594V34.9179H25.9644V17.1594H13.8813ZM23.2442 23.4633C22.5077 24.5408 20.5954 27.8265 20.5954 30.0537C20.5954 30.6907 20.0791 31.207 19.4421 31.207C18.8051 31.207 18.2888 30.6907 18.2888 30.0537C18.2888 27.9827 19.3753 25.573 20.2527 23.9647H17.5159C16.8789 23.9647 16.3626 23.4483 16.3626 22.8114C16.3626 22.1744 16.8789 21.6581 17.5159 21.6581H22.2928C22.7207 21.6581 23.1135 21.895 23.313 22.2736C23.5126 22.6522 23.4861 23.1102 23.2442 23.4633Z" fill="white"/>
<path d="M1.11539 39.9815H38.8845C39.5005 39.9815 39.9999 39.4821 39.9999 38.8661V37.2246H0V38.8661C0 39.482 0.499375 39.9815 1.11539 39.9815Z" fill="white"/>
<path d="M28.2155 5.13296C26.7237 2.10343 23.6061 0.0185852 20.0011 0.0185852C16.3961 0.0185852 13.2784 2.10343 11.7867 5.13296H1.11539C0.499375 5.13296 0 5.63234 0 6.24835V9.33335H40V6.24835C40 5.63234 39.5006 5.13296 38.8846 5.13296H28.2155Z" fill="white"/>
<path d="M11.5749 17.1594H0V34.9179H11.5749V17.1594ZM9.04922 23.4633C8.31273 24.5408 6.40039 27.8265 6.40039 30.0537C6.40039 30.6907 5.88406 31.207 5.24711 31.207C4.61016 31.207 4.09383 30.6907 4.09383 30.0537C4.09383 27.9827 5.18031 25.573 6.05773 23.9647H3.32094C2.68398 23.9647 2.16766 23.4483 2.16766 22.8114C2.16766 22.1744 2.68398 21.6581 3.32094 21.6581H8.09781C8.52578 21.6581 8.91859 21.895 9.11812 22.2736C9.31766 22.6522 9.29109 23.1102 9.04922 23.4633Z" fill="white"/>
<path d="M0 11.6399H40V14.5446H0V11.6399Z" fill="white"/>
<path d="M28.271 34.9179H39.9999V17.1594H28.271V34.9179ZM31.7111 21.6581H36.4879C36.9159 21.6581 37.3087 21.895 37.5082 22.2736C37.7078 22.6522 37.6812 23.1102 37.4394 23.4633C36.7029 24.5408 34.7905 27.8265 34.7905 30.0538C34.7905 30.6908 34.2742 31.2071 33.6372 31.2071C33.0003 31.2071 32.484 30.6908 32.484 30.0538C32.484 27.9828 33.5704 25.573 34.4479 23.9647H31.7112C31.0742 23.9647 30.5579 23.4483 30.5579 22.8114C30.5579 22.1744 31.0741 21.6581 31.7111 21.6581Z" fill="white"/>
</g>
<defs>
<clipPath id="clip0_2124_4958">
<rect width="40" height="40" fill="white"/>
</clipPath>
</defs>
</svg>
