<svg width="40" height="40" viewBox="0 0 40 40" fill="none" xmlns="http://www.w3.org/2000/svg">
<g clip-path="url(#clip0_2124_4968)">
<path d="M2.43007 11.2837C1.09756 11.2442 0.000976562 12.3165 0.000976562 13.6403L0.0550362 38.9513C0.0562861 39.5308 0.526418 40 1.10592 40H4.71627V13.6905C4.71635 12.4076 3.71234 11.3218 2.43007 11.2837Z" fill="white"/>
<path d="M17.2081 39.9948H22.7918C22.7918 39.9945 22.7918 39.9944 22.7918 39.9941V34.8593C22.7918 34.855 22.7925 34.8509 22.7925 34.8467H17.2075C17.2076 34.8509 17.2081 34.855 17.2081 34.8593V39.9941C17.2081 39.9944 17.2081 39.9946 17.2081 39.9948Z" fill="white"/>
<path d="M25.1354 39.9948H33.0272V34.8467H25.1348C25.1348 34.8509 25.1354 34.855 25.1354 34.8593V39.9941V39.9948Z" fill="white"/>
<path d="M21.1656 27.3431C26.8742 26.8584 31.5972 22.8656 33.1647 17.5358C32.8939 17.7773 32.6013 18.0221 32.2859 18.2665C30.1561 19.9166 26.5453 21.8597 21.1655 22.137V27.3431H21.1656Z" fill="white"/>
<path d="M18.8219 19.8014V14.8505L7.62695 14.8488C11.3826 18.7745 15.5697 19.6539 18.8219 19.8014Z" fill="white"/>
<path d="M21.1655 19.7915C24.9229 19.5842 28.1435 18.4756 30.7541 16.4879C31.4949 15.9238 32.0902 15.3564 32.5533 14.8526L21.1655 14.8508V19.7915Z" fill="white"/>
<path d="M18.8215 7.4989C13.5174 7.8474 9.81608 10.4864 7.729 12.5051L18.8215 12.5068V7.4989Z" fill="white"/>
<path d="M21.1655 12.5072L32.6113 12.509C32.1553 11.9926 31.5637 11.4075 30.8195 10.8258C28.2215 8.7954 24.9781 7.67499 21.1656 7.48773V12.5072H21.1655Z" fill="white"/>
<path d="M33.1283 9.70675C32.4745 7.56913 31.2912 5.60385 29.6423 3.96815C27.3136 1.65796 24.339 0.273892 21.1655 0V5.14246C26.632 5.39307 30.2554 7.38141 32.3743 9.06733C32.6428 9.28092 32.8933 9.49481 33.1283 9.70675Z" fill="white"/>
<path d="M8.46665 20.9149C9.89134 23.1665 11.943 25.0528 14.0957 26.0901C14.6314 26.3483 15.1948 26.5642 15.7704 26.7319L15.8002 26.7409C16.7804 27.055 17.7927 27.256 18.8218 27.3429V22.1448C16.439 22.0406 14.3198 21.6144 12.3741 20.8495C10.3512 20.0542 8.49696 18.8807 6.83057 17.3461C7.26265 18.7896 7.88637 19.9979 8.46665 20.9149Z" fill="white"/>
<path d="M6.75293 10.2198C9.22702 8.02168 13.2528 5.47173 18.8217 5.15003V0.00170898C15.7553 0.274507 12.859 1.61014 10.5646 3.83268C8.7347 5.60524 7.41102 7.847 6.75293 10.2198Z" fill="white"/>
<path d="M14.8647 39.9942V34.8593C14.8647 34.8551 14.8653 34.851 14.8653 34.8467H6.98682V39.9948H14.8647C14.8647 39.9946 14.8647 39.9944 14.8647 39.9942Z" fill="white"/>
<path d="M37.7127 11.2816C36.3803 11.2421 35.2837 12.3144 35.2837 13.6382L35.34 39.9979H38.9481C39.5285 39.9979 39.9991 39.5274 39.9991 38.9469V13.6884C39.999 12.4055 38.9951 11.3197 37.7127 11.2816Z" fill="white"/>
</g>
<defs>
<clipPath id="clip0_2124_4968">
<rect width="40" height="40" fill="white"/>
</clipPath>
</defs>
</svg>
