<svg width="32" height="32" viewBox="0 0 32 32" fill="none" xmlns="http://www.w3.org/2000/svg">
<g clip-path="url(#clip0_2124_5497)">
<path d="M15.633 10.8371C15.8604 10.9681 16.1392 10.9713 16.3686 10.844C17.6963 10.107 22.1097 7.3062 22.1097 3.16118C22.1097 1.41532 20.6929 1.13608e-05 18.9452 1.13608e-05C17.7952 1.13608e-05 16.7885 0.612937 16.2345 1.52955C16.1244 1.71163 15.8625 1.71163 15.7524 1.52955C15.1984 0.612937 14.1917 1.13608e-05 13.0417 1.13608e-05C11.2071 -0.00486255 9.88612 1.55916 9.88612 3.39994H9.88562C9.88562 7.24159 14.3193 10.0803 15.633 10.8371Z" fill="#185A61"/>
<path d="M16.4993 19.1407C16.1988 18.7729 15.6362 18.7742 15.3374 19.1434L10.7089 24.8632C10.4868 25.1378 10.4867 25.5302 10.7087 25.8049L15.4913 31.7219C15.7919 32.0938 16.3594 32.0925 16.6582 31.7191L21.2861 25.9358C21.5067 25.6602 21.5047 25.2678 21.2813 24.9944L16.4993 19.1407Z" fill="#185A61"/>
<path d="M7.63575 20.8054H6.98945V18.4432C7.40536 18.7762 7.91425 18.9809 8.45206 19.0036C8.48837 19.0052 8.52492 19.0059 8.5616 19.0059C10.5152 19.0069 12.0998 17.4667 12.1008 15.5658C12.1013 14.4948 11.6004 13.4837 10.7438 12.811C9.01962 11.4569 7.42567 9.74749 6.61516 8.83238C6.31791 8.49677 5.79366 8.49652 5.49604 8.83182C4.68459 9.74605 3.08888 11.4539 1.36333 12.8062C0.506084 13.478 0.0041334 14.4886 0.00357103 15.5596C0.00257125 17.4605 1.58553 19.0023 3.53922 19.0033C3.57609 19.0033 3.61283 19.0026 3.64932 19.0011C4.18814 18.9787 4.69821 18.7739 5.11487 18.4402V20.8053H4.46864C3.951 20.8053 3.53135 21.225 3.53135 21.7426C3.53135 22.2603 3.951 22.6799 4.46864 22.6799H7.63575C8.15338 22.6799 8.57304 22.2603 8.57304 21.7426C8.57304 21.225 8.15338 20.8054 7.63575 20.8054Z" fill="#185A61"/>
<path d="M28.8393 12.6101H28.8365C28.7161 12.6102 28.6339 12.4895 28.6812 12.3788C28.8617 11.9554 28.9505 11.4835 28.9222 10.9879C28.8318 9.41045 27.535 8.14124 25.956 8.08269C24.1965 8.01745 22.7496 9.42445 22.7496 11.1694C22.7496 11.5987 22.8382 12.0069 22.9968 12.3782C23.0442 12.4892 22.9624 12.6104 22.8417 12.6101C22.839 12.6101 22.8363 12.6101 22.8337 12.6101C21.0491 12.6101 19.6104 14.0908 19.6789 15.8906C19.7425 17.5591 21.1262 18.9046 22.7959 18.9242C23.6017 18.9336 24.3386 18.6408 24.9013 18.1524V20.8054H24.2429C23.7253 20.8054 23.3056 21.225 23.3056 21.7426C23.3056 22.2603 23.7253 22.6799 24.2429 22.6799H27.4341C27.9518 22.6799 28.3714 22.2603 28.3714 21.7426C28.3714 21.225 27.9518 20.8054 27.4341 20.8054H26.7758V18.1559C27.338 18.6423 28.0733 18.9336 28.8773 18.9242C30.5469 18.9047 31.9306 17.5592 31.9942 15.8906C32.0627 14.0908 30.6239 12.6101 28.8393 12.6101Z" fill="#185A61"/>
</g>
<defs>
<clipPath id="clip0_2124_5497">
<rect width="32" height="32" fill="white"/>
</clipPath>
</defs>
</svg>
