<svg width="16" height="16" viewBox="0 0 16 16" fill="none" xmlns="http://www.w3.org/2000/svg">
<g clip-path="url(#clip0_2124_5378)">
<path d="M9.08167 2.12268C8.75333 2.12268 8.48624 2.38981 8.48624 2.71812C8.48624 3.04646 8.75336 3.31356 9.08167 3.31356C9.41002 3.31356 9.67711 3.04643 9.67711 2.71812C9.67711 2.38977 9.40999 2.12268 9.08167 2.12268Z" fill="#2DB155"/>
<path d="M15.2643 9.62569C15.67 9.62569 16 9.29566 16 8.89V0.735687C16 0.330031 15.67 0 15.2643 0H7.11002C6.70436 0 6.37433 0.330031 6.37433 0.735687V5.44334H9.00943C9.86258 5.44334 10.5567 6.13744 10.5567 6.99059V9.62569H15.2643ZM13.2927 1.19166C14.1344 1.19166 14.8191 1.87641 14.8191 2.71806C14.8191 3.55972 14.1344 4.2445 13.2927 4.2445C12.451 4.2445 11.7663 3.55975 11.7663 2.71806C11.7663 1.87637 12.451 1.19166 13.2927 1.19166ZM13.2927 5.38119C14.1344 5.38119 14.8191 6.06594 14.8191 6.90763C14.8191 7.74931 14.1344 8.43406 13.2927 8.43406C12.451 8.43406 11.7663 7.74931 11.7663 6.90763C11.7663 6.06594 12.451 5.38119 13.2927 5.38119ZM9.08168 4.2445C8.23999 4.2445 7.55524 3.55975 7.55524 2.71806C7.55524 1.87637 8.23999 1.19166 9.08168 1.19166C9.92336 1.19166 10.6081 1.87641 10.6081 2.71806C10.6081 3.55972 9.92333 4.2445 9.08168 4.2445Z" fill="#2DB155"/>
<path d="M6.90458 13.9236C7.23292 13.9236 7.50002 13.6565 7.50002 13.3282C7.50002 12.9999 7.23289 12.7327 6.90458 12.7327C6.57627 12.7327 6.30914 12.9999 6.30914 13.3282C6.30914 13.6565 6.57624 13.9236 6.90458 13.9236Z" fill="#2DB155"/>
<path d="M13.2927 7.50307C13.6215 7.50307 13.8881 7.23648 13.8881 6.90763C13.8881 6.57878 13.6215 6.31219 13.2927 6.31219C12.9638 6.31219 12.6973 6.57878 12.6973 6.90763C12.6973 7.23648 12.9638 7.50307 13.2927 7.50307Z" fill="#2DB155"/>
<path d="M13.2927 3.31349C13.621 3.31349 13.8881 3.04637 13.8881 2.71806C13.8881 2.38974 13.621 2.12262 13.2927 2.12262C12.9644 2.12262 12.6973 2.38974 12.6973 2.71806C12.6973 3.0464 12.9644 3.31349 13.2927 3.31349Z" fill="#2DB155"/>
<path d="M2.72112 9.64156C3.04997 9.64156 3.31656 9.37497 3.31656 9.04612C3.31656 8.71727 3.04997 8.45068 2.72112 8.45068C2.39227 8.45068 2.12568 8.71727 2.12568 9.04612C2.12568 9.37497 2.39227 9.64156 2.72112 9.64156Z" fill="#2DB155"/>
<path d="M9.00944 16C9.34925 16 9.62569 15.7235 9.62569 15.3838V6.99058C9.62569 6.65077 9.34925 6.37433 9.00944 6.37433H0.616281C0.276469 6.37433 0 6.65077 0 6.99058V15.3837C0 15.7235 0.276469 16 0.616281 16H9.00944V16ZM6.90459 11.8018C7.74628 11.8018 8.43103 12.4865 8.43103 13.3282C8.43103 14.1699 7.74628 14.8546 6.90459 14.8546C6.06291 14.8546 5.37816 14.1699 5.37816 13.3282C5.37816 12.4865 6.06291 11.8018 6.90459 11.8018ZM2.72112 7.5197C3.56281 7.5197 4.24756 8.20445 4.24756 9.04614C4.24756 9.88783 3.56281 10.5726 2.72112 10.5726C1.87944 10.5726 1.19469 9.88783 1.19469 9.04614C1.19469 8.20445 1.87947 7.5197 2.72112 7.5197Z" fill="#2DB155"/>
</g>
<defs>
<clipPath id="clip0_2124_5378">
<rect width="16" height="16" fill="white"/>
</clipPath>
</defs>
</svg>
